# xmcd CD database file generated by Grip 3.2.0
# 
# Track frame offsets:
#       150
#       26491
#       56584
#       87176
#       114635
#       136984
#       157455
#       175415
#       216076
# 
# Disc length: 3121 seconds
# 
# Revision: 1
# Processed by: cddbd v1.5.2PL0 Copyright (c) Steve Scherf et al.
# Submitted via: Grip 3.2.0
# 
DISCID=7f0c2f09
DTITLE=Motif - Motif
DYEAR=2004
DGENRE=Jazz
TTITLE0=In
TTITLE1=Her Piece
TTITLE2=John Dough
TTITLE3=Untitled For The Masses
TTITLE4=Git On Up
TTITLE5=NY Ballade
TTITLE6=Soft Song
TTITLE7=Vups
TTITLE8=Blindfolded
EXTD=YEAR: 2004
EXTT0=
EXTT1=
EXTT2=
EXTT3=
EXTT4=
EXTT5=
EXTT6=
EXTT7=
EXTT8=
PLAYORDER=
